<svg xmlns="http://www.w3.org/2000/svg" width="28.983" height="31.022" viewBox="0 0 28.983 31.022">
  <g id="Grupo_72" data-name="Grupo 72" transform="translate(-25.5 -366.5)">
    <g id="Grupo_7650" data-name="Grupo 7650" transform="translate(34.5 374.5)">
      <path id="Trazado_50" data-name="Trazado 50" d="M59.661,13.97a5.091,5.091,0,1,0,5.091,5.091h0a5.085,5.085,0,0,0-5.091-5.091Z" transform="translate(-54.57 -9.484)" fill="#d4f9f5" stroke="#595959" stroke-miterlimit="10" stroke-width="1"/>
      <path id="Trazado_51" data-name="Trazado 51" d="M63.351,12.067V9.52a3.521,3.521,0,1,0-7.041,0v2.537" transform="translate(-54.739 -6)" fill="none" stroke="#595959" stroke-miterlimit="10" stroke-width="1"/>
      <line id="Línea_25" data-name="Línea 25" y2="2.166" transform="translate(4.983 9.216)" fill="none" stroke="#595959" stroke-linecap="round" stroke-miterlimit="10" stroke-width="1"/>
      <circle id="Elipse_15" data-name="Elipse 15" cx="1.155" cy="1.155" r="1.155" transform="translate(3.827 7.528)" fill="none" stroke="#595959" stroke-linecap="round" stroke-miterlimit="10" stroke-width="1"/>
    </g>
    <g id="Icon_-_categoria_-_luz_Copy_6" data-name="Icon - categoria - luz Copy 6" transform="translate(25.5 366.5)">
      <path id="Trazado_53" data-name="Trazado 53" d="M0,6.092A45.95,45.95,0,0,0,13.719,0c5.573,3.962,14.264,6.092,14.264,6.092S26.949,24.4,13.921,30.022C0,23.9,0,6.092,0,6.092Z" transform="translate(0.5 0.5)" fill="none" stroke="#595959" stroke-linecap="round" stroke-linejoin="round" stroke-miterlimit="10" stroke-width="1"/>
    </g>
  </g>
</svg>
